<svg xmlns="http://www.w3.org/2000/svg" style="display:none">
  <symbol id="i-discover" viewBox="0 0 24 24" fill="none" stroke="currentColor" stroke-width="1.5"><circle cx="11" cy="11" r="7"/><path d="M20 20l-3.5-3.5"/></symbol>
  <symbol id="i-design" viewBox="0 0 24 24" fill="none" stroke="currentColor" stroke-width="1.5"><path d="M4 20l10-10M14 4l6 6-10 10H4v-6z"/></symbol>
  <symbol id="i-visualize" viewBox="0 0 24 24" fill="none" stroke="currentColor" stroke-width="1.5"><path d="M2 12s4-7 10-7 10 7 10 7-4 7-10 7S2 12 2 12z"/><circle cx="12" cy="12" r="3"/></symbol>
  <symbol id="i-plan" viewBox="0 0 24 24" fill="none" stroke="currentColor" stroke-width="1.5"><rect x="4" y="3" width="16" height="18" rx="2"/><path d="M8 8h8M8 12h8M8 16h5"/></symbol>
  <symbol id="i-build" viewBox="0 0 24 24" fill="none" stroke="currentColor" stroke-width="1.5"><path d="M4 20V10l8-6 8 6v10H4z"/><path d="M10 20v-6h4v6"/></symbol>
  <symbol id="i-install" viewBox="0 0 24 24" fill="none" stroke="currentColor" stroke-width="1.5"><rect x="3" y="4" width="18" height="14" rx="2"/><path d="M8 22h8M12 18v4"/></symbol>
  <symbol id="i-deliver" viewBox="0 0 24 24" fill="none" stroke="currentColor" stroke-width="1.5"><path d="M5 12l5 5L20 7"/></symbol>
</svg>
